HIERARCHY
ROOT Hips
{
	OFFSET 0.000000 0.000000 0.000000
	CHANNELS 6 Xposition Yposition Zposition Zrotation Xrotation Yrotation
	JOINT Spine
	{
		OFFSET 0.000000 0.059888 0.006665
		CHANNELS 6 Xposition Yposition Zposition Zrotation Xrotation Yrotation
		JOINT Chest
		{
			OFFSET 0.000000 0.125681 -0.015911
			CHANNELS 6 Xposition Yposition Zposition Zrotation Xrotation Yrotation
			JOINT UpperChest
			{
				OFFSET 0.000000 0.122768 -0.001652
				CHANNELS 6 Xposition Yposition Zposition Zrotation Xrotation Yrotation
				JOINT Neck
				{
					OFFSET 0.000000 0.155865 0.008735
					CHANNELS 6 Xposition Yposition Zposition Zrotation Xrotation Yrotation
					JOINT Head
					{
						OFFSET 0.000000 0.095969 -0.000410
						CHANNELS 6 Xposition Yposition Zposition Zrotation Xrotation Yrotation
						JOINT LeftEye
						{
							OFFSET 0.015267 0.059218 0.021494
							CHANNELS 6 Xposition Yposition Zposition Zrotation Xrotation Yrotation
							End Site
							{
								OFFSET 0.015267 0.059218 0.021494
							}
						}
						JOINT RightEye
						{
							OFFSET -0.015267 0.059218 0.021494
							CHANNELS 6 Xposition Yposition Zposition Zrotation Xrotation Yrotation
							End Site
							{
								OFFSET -0.015267 0.059218 0.021494
							}
						}
					}
				}
				JOINT LeftShoulder
				{
					OFFSET 0.025383 0.124268 0.007699
					CHANNELS 6 Xposition Yposition Zposition Zrotation Xrotation Yrotation
					JOINT LeftUpperArm
					{
						OFFSET 0.136062 0.000000 0.000000
						CHANNELS 6 Xposition Yposition Zposition Zrotation Xrotation Yrotation
						JOINT LeftLowerArm
						{
							OFFSET 0.225446 0.000000 0.000000
							CHANNELS 6 Xposition Yposition Zposition Zrotation Xrotation Yrotation
							JOINT LeftHand
							{
								OFFSET 0.256325 0.000003 0.000015
								CHANNELS 6 Xposition Yposition Zposition Zrotation Xrotation Yrotation
								JOINT LeftIndexProximal
								{
									OFFSET 0.074229 0.008101 0.022282
									CHANNELS 6 Xposition Yposition Zposition Zrotation Xrotation Yrotation
									JOINT LeftIndexIntermediate
									{
										OFFSET 0.037712 0.000000 -0.000001
										CHANNELS 6 Xposition Yposition Zposition Zrotation Xrotation Yrotation
										JOINT LeftIndexDistal
										{
											OFFSET 0.023218 0.000022 0.000021
											CHANNELS 6 Xposition Yposition Zposition Zrotation Xrotation Yrotation
											End Site
											{
												OFFSET 0.023218 0.000022 0.000021
											}
										}
									}
								}
								JOINT LeftLittleProximal
								{
									OFFSET 0.069261 0.008101 -0.033073
									CHANNELS 6 Xposition Yposition Zposition Zrotation Xrotation Yrotation
									JOINT LeftLittleIntermediate
									{
										OFFSET 0.035643 0.000000 0.000000
										CHANNELS 6 Xposition Yposition Zposition Zrotation Xrotation Yrotation
										JOINT LeftLittleDistal
										{
											OFFSET 0.020542 0.000000 0.000000
											CHANNELS 6 Xposition Yposition Zposition Zrotation Xrotation Yrotation
											End Site
											{
												OFFSET 0.020542 0.000000 0.000000
											}
										}
									}
								}
								JOINT LeftMiddleProximal
								{
									OFFSET 0.075240 0.008101 0.002320
									CHANNELS 6 Xposition Yposition Zposition Zrotation Xrotation Yrotation
									JOINT LeftMiddleIntermediate
									{
										OFFSET 0.042007 0.000000 0.000000
										CHANNELS 6 Xposition Yposition Zposition Zrotation Xrotation Yrotation
										JOINT LeftMiddleDistal
										{
											OFFSET 0.025915 0.000000 0.000000
											CHANNELS 6 Xposition Yposition Zposition Zrotation Xrotation Yrotation
											End Site
											{
												OFFSET 0.025915 0.000000 0.000000
											}
										}
									}
								}
								JOINT LeftRingProximal
								{
									OFFSET 0.074383 0.008101 -0.015403
									CHANNELS 6 Xposition Yposition Zposition Zrotation Xrotation Yrotation
									JOINT LeftRingIntermediate
									{
										OFFSET 0.038967 0.000000 0.000000
										CHANNELS 6 Xposition Yposition Zposition Zrotation Xrotation Yrotation
										JOINT LeftRingDistal
										{
											OFFSET 0.022488 0.000000 0.000000
											CHANNELS 6 Xposition Yposition Zposition Zrotation Xrotation Yrotation
											End Site
											{
												OFFSET 0.022488 0.000000 0.000000
											}
										}
									}
								}
								JOINT LeftThumbProximal
								{
									OFFSET 0.003995 -0.010985 0.018096
									CHANNELS 6 Xposition Yposition Zposition Zrotation Xrotation Yrotation
									JOINT LeftThumbIntermediate
									{
										OFFSET 0.052819 -0.000008 -0.000074
										CHANNELS 6 Xposition Yposition Zposition Zrotation Xrotation Yrotation
										JOINT LeftThumbDistal
										{
											OFFSET 0.032489 0.000042 -0.000035
											CHANNELS 6 Xposition Yposition Zposition Zrotation Xrotation Yrotation
											End Site
											{
												OFFSET 0.032489 0.000042 -0.000035
											}
										}
									}
								}
							}
						}
					}
				}
				JOINT RightShoulder
				{
					OFFSET -0.025383 0.124268 0.007699
					CHANNELS 6 Xposition Yposition Zposition Zrotation Xrotation Yrotation
					JOINT RightUpperArm
					{
						OFFSET -0.136062 0.000000 0.000000
						CHANNELS 6 Xposition Yposition Zposition Zrotation Xrotation Yrotation
						JOINT RightLowerArm
						{
							OFFSET -0.225446 0.000000 0.000000
							CHANNELS 6 Xposition Yposition Zposition Zrotation Xrotation Yrotation
							JOINT RightHand
							{
								OFFSET -0.256325 0.000003 0.000015
								CHANNELS 6 Xposition Yposition Zposition Zrotation Xrotation Yrotation
								JOINT RightIndexProximal
								{
									OFFSET -0.074229 0.008101 0.022282
									CHANNELS 6 Xposition Yposition Zposition Zrotation Xrotation Yrotation
									JOINT RightIndexIntermediate
									{
										OFFSET -0.037712 0.000000 -0.000001
										CHANNELS 6 Xposition Yposition Zposition Zrotation Xrotation Yrotation
										JOINT RightIndexDistal
										{
											OFFSET -0.023218 0.000022 0.000021
											CHANNELS 6 Xposition Yposition Zposition Zrotation Xrotation Yrotation
											End Site
											{
												OFFSET -0.023218 0.000022 0.000021
											}
										}
									}
								}
								JOINT RightLittleProximal
								{
									OFFSET -0.069261 0.008101 -0.033073
									CHANNELS 6 Xposition Yposition Zposition Zrotation Xrotation Yrotation
									JOINT RightLittleIntermediate
									{
										OFFSET -0.035643 0.000000 0.000000
										CHANNELS 6 Xposition Yposition Zposition Zrotation Xrotation Yrotation
										JOINT RightLittleDistal
										{
											OFFSET -0.020542 0.000000 0.000000
											CHANNELS 6 Xposition Yposition Zposition Zrotation Xrotation Yrotation
											End Site
											{
												OFFSET -0.020542 0.000000 0.000000
											}
										}
									}
								}
								JOINT RightMiddleProximal
								{
									OFFSET -0.075240 0.008101 0.002320
									CHANNELS 6 Xposition Yposition Zposition Zrotation Xrotation Yrotation
									JOINT RightMiddleIntermediate
									{
										OFFSET -0.042007 0.000000 0.000000
										CHANNELS 6 Xposition Yposition Zposition Zrotation Xrotation Yrotation
										JOINT RightMiddleDistal
										{
											OFFSET -0.025915 0.000000 0.000000
											CHANNELS 6 Xposition Yposition Zposition Zrotation Xrotation Yrotation
											End Site
											{
												OFFSET -0.025915 0.000000 0.000000
											}
										}
									}
								}
								JOINT RightRingProximal
								{
									OFFSET -0.074383 0.008101 -0.015403
									CHANNELS 6 Xposition Yposition Zposition Zrotation Xrotation Yrotation
									JOINT RightRingIntermediate
									{
										OFFSET -0.038967 0.000000 0.000000
										CHANNELS 6 Xposition Yposition Zposition Zrotation Xrotation Yrotation
										JOINT RightRingDistal
										{
											OFFSET -0.022488 0.000000 0.000000
											CHANNELS 6 Xposition Yposition Zposition Zrotation Xrotation Yrotation
											End Site
											{
												OFFSET -0.022488 0.000000 0.000000
											}
										}
									}
								}
								JOINT RightThumbProximal
								{
									OFFSET -0.003995 -0.010985 0.018096
									CHANNELS 6 Xposition Yposition Zposition Zrotation Xrotation Yrotation
									JOINT RightThumbIntermediate
									{
										OFFSET -0.052819 -0.000008 -0.000074
										CHANNELS 6 Xposition Yposition Zposition Zrotation Xrotation Yrotation
										JOINT RightThumbDistal
										{
											OFFSET -0.032489 0.000042 -0.000035
											CHANNELS 6 Xposition Yposition Zposition Zrotation Xrotation Yrotation
											End Site
											{
												OFFSET -0.032489 0.000042 -0.000035
											}
										}
									}
								}
							}
						}
					}
				}
			}
		}
	}
	JOINT LeftUpperLeg
	{
		OFFSET 0.087143 -0.045243 0.001548
		CHANNELS 6 Xposition Yposition Zposition Zrotation Xrotation Yrotation
		JOINT LeftLowerLeg
		{
			OFFSET 0.000000 -0.394432 -0.000001
			CHANNELS 6 Xposition Yposition Zposition Zrotation Xrotation Yrotation
			JOINT LeftFoot
			{
				OFFSET 0.000000 -0.466446 0.003058
				CHANNELS 6 Xposition Yposition Zposition Zrotation Xrotation Yrotation
				JOINT LeftToes
				{
					OFFSET 0.000000 -0.079218 0.140851
					CHANNELS 6 Xposition Yposition Zposition Zrotation Xrotation Yrotation
					End Site
					{
						OFFSET 0.000000 -0.079218 0.140851
					}
				}
			}
		}
	}
	JOINT RightUpperLeg
	{
		OFFSET -0.087143 -0.045243 0.001548
		CHANNELS 6 Xposition Yposition Zposition Zrotation Xrotation Yrotation
		JOINT RightLowerLeg
		{
			OFFSET 0.000000 -0.394432 -0.000001
			CHANNELS 6 Xposition Yposition Zposition Zrotation Xrotation Yrotation
			JOINT RightFoot
			{
				OFFSET 0.000000 -0.466446 0.003058
				CHANNELS 6 Xposition Yposition Zposition Zrotation Xrotation Yrotation
				JOINT RightToes
				{
					OFFSET 0.000000 -0.079218 0.140851
					CHANNELS 6 Xposition Yposition Zposition Zrotation Xrotation Yrotation
					End Site
					{
						OFFSET 0.000000 -0.079218 0.140851
					}
				}
			}
		}
	}
}
MOTION
Frames: 4
Frame Time: 0.041667
0.001137 1.034050 0.003163 0.025464 13.796478 12.902845 0.000000 0.059888 0.006665 -2.664548 6.661949 0.562070 0.000000 0.125681 -0.015911 -2.515075 -0.291804 -0.782385 0.000000 0.122768 -0.001652 -0.000052 -12.397707 -0.000104 -0.000000 0.155865 0.008735 -0.253342 15.481841 0.367806 -0.000000 0.095969 -0.000410 1.196512 3.814272 5.199932 0.015267 0.059218 0.021494 -1.701128 3.586994 21.747928 -0.015267 0.059218 0.021494 1.701132 3.587005 -21.747920 0.025383 0.124268 0.007699 17.113184 -2.133939 13.172200 0.136062 0.000000 -0.000000 -96.334894 18.585264 8.084307 0.225446 -0.000000 -0.000000 -8.154412 1.995373 -20.961726 0.256325 0.000003 0.000015 -1.490819 39.323680 -0.054623 0.074229 0.008101 0.022282 -0.012967 0.667619 1.112106 0.037712 0.000000 -0.000001 -1.679194 1.282861 0.674522 0.023218 0.000022 0.000021 -0.334984 1.286450 -0.710999 0.069261 0.008101 -0.033073 0.000004 -0.000043 0.000000 0.035643 -0.000000 -0.000000 0.000002 0.000000 -0.000000 0.020542 -0.000000 0.000000 0.890203 -0.008559 -1.101171 0.075240 0.008101 0.002320 -0.000000 -0.000009 -0.000007 0.042007 -0.000000 0.000000 0.000003 0.000039 -0.000014 0.025915 -0.000000 0.000000 0.000004 0.000037 -0.000013 0.074383 0.008101 -0.015403 -0.000000 0.000014 0.000004 0.038967 -0.000000 -0.000000 0.000003 0.000000 0.000000 0.022488 0.000000 -0.000000 -0.712572 -0.008155 1.310730 0.003995 -0.010985 0.018096 86.199487 49.487524 -89.646574 0.052819 -0.000008 -0.000074 -2.573037 -0.739914 0.463023 0.032489 0.000042 -0.000035 4.590286 -0.705068 -0.717108 -0.025383 0.124268 0.007699 10.736297 -2.109044 -13.114833 -0.136062 0.000000 -0.000000 62.838348 29.370725 8.780054 -0.225446 -0.000000 -0.000000 7.732683 16.102183 19.117332 -0.256325 0.000003 0.000015 0.246107 28.804236 6.679599 -0.074229 0.008101 0.022282 0.012967 0.667619 -1.112105 -0.037712 -0.000000 -0.000001 1.679195 1.282860 -0.674523 -0.023218 0.000022 0.000021 0.334983 1.286454 0.710997 -0.069261 0.008101 -0.033073 -0.000007 -0.000045 -0.000001 -0.035643 0.000000 0.000000 -0.000003 0.000001 -0.000001 -0.020542 0.000000 0.000000 -0.890205 -0.008560 1.101171 -0.075240 0.008101 0.002320 -0.000001 -0.000009 0.000006 -0.042007 0.000000 0.000000 -0.000003 0.000039 0.000012 -0.025915 0.000000 0.000000 -0.000004 0.000040 0.000011 -0.074383 0.008101 -0.015403 -0.000000 0.000014 -0.000003 -0.038967 -0.000000 -0.000000 -0.000003 -0.000000 -0.000001 -0.022488 0.000000 -0.000000 0.712572 -0.008159 -1.310729 -0.003995 -0.010985 0.018096 -86.199433 49.487517 89.646581 -0.052819 -0.000008 -0.000074 2.573040 -0.739911 -0.463023 -0.032489 0.000042 -0.000035 -4.590282 -0.705066 0.717110 0.087143 -0.045243 0.001548 -7.167150 -9.327208 -1.167547 -0.000000 -0.394432 -0.000001 4.067429 21.837167 -7.691686 0.000000 -0.466446 0.003058 5.320749 -13.418484 22.426837 0.000000 -0.079218 0.140851 0.000000 0.248285 -0.000001 -0.087143 -0.045243 0.001548 -11.552844 -13.079768 -2.648583 0.000000 -0.394432 -0.000001 7.830190 26.165370 -16.337592 -0.000000 -0.466446 0.003058 7.885310 -17.879393 24.729349 -0.000000 -0.079218 0.140851 -0.000000 0.248280 0.000002 
0.001137 1.034050 0.003163 0.025464 13.796478 12.902845 0.000000 0.059888 0.006665 -2.664547 6.661950 0.562070 0.000000 0.125681 -0.015911 -2.515075 -0.291804 -0.782385 0.000000 0.122768 -0.001652 -0.000051 -12.397708 -0.000105 -0.000000 0.155865 0.008735 -0.253342 15.481846 0.367808 -0.000000 0.095969 -0.000410 1.196510 3.814277 5.199933 0.015267 0.059218 0.021494 -1.701130 3.586996 21.747927 -0.015267 0.059218 0.021494 1.701131 3.587005 -21.747920 0.025383 0.124268 0.007699 17.113186 -2.133937 13.172199 0.136062 0.000000 0.000000 -96.334880 18.585261 8.084299 0.225446 -0.000000 -0.000000 -8.154419 1.995373 -20.961726 0.256325 0.000003 0.000015 -1.490829 39.323684 -0.054616 0.074229 0.008101 0.022282 -0.012967 0.667619 1.112105 0.037712 0.000000 -0.000001 -1.679194 1.282863 0.674522 0.023218 0.000022 0.000021 -0.334984 1.286452 -0.710999 0.069261 0.008101 -0.033073 0.000004 -0.000044 -0.000000 0.035643 0.000000 -0.000000 0.000003 0.000000 -0.000000 0.020542 0.000000 0.000000 0.890204 -0.008559 -1.101172 0.075240 0.008101 0.002320 -0.000000 -0.000008 -0.000006 0.042007 -0.000000 0.000000 0.000003 0.000039 -0.000014 0.025915 -0.000000 -0.000000 0.000003 0.000037 -0.000013 0.074383 0.008101 -0.015403 -0.000001 0.000012 0.000004 0.038967 0.000000 -0.000000 0.000003 -0.000002 -0.000000 0.022488 0.000000 -0.000000 -0.712572 -0.008155 1.310730 0.003995 -0.010985 0.018096 86.199494 49.487521 -89.646574 0.052819 -0.000008 -0.000074 -2.573041 -0.739911 0.463024 0.032489 0.000042 -0.000035 4.590283 -0.705065 -0.717110 -0.025383 0.124268 0.007699 10.736296 -2.109042 -13.114835 -0.136062 0.000000 -0.000000 62.838328 29.370732 8.780062 -0.225446 -0.000000 0.000000 7.732673 16.102180 19.117336 -0.256325 0.000003 0.000015 0.246115 28.804243 6.679608 -0.074229 0.008101 0.022282 0.012968 0.667620 -1.112105 -0.037712 -0.000000 -0.000001 1.679197 1.282860 -0.674522 -0.023218 0.000022 0.000021 0.334983 1.286452 0.710997 -0.069261 0.008101 -0.033073 -0.000007 -0.000044 0.000000 -0.035643 0.000000 -0.000000 -0.000003 0.000000 -0.000001 -0.020542 -0.000000 -0.000000 -0.890205 -0.008561 1.101171 -0.075240 0.008101 0.002320 -0.000002 -0.000008 0.000007 -0.042007 0.000000 0.000000 -0.000003 0.000040 0.000012 -0.025915 -0.000000 -0.000000 -0.000003 0.000039 0.000012 -0.074383 0.008101 -0.015403 -0.000001 0.000013 -0.000002 -0.038967 0.000000 0.000000 -0.000003 0.000001 -0.000001 -0.022488 0.000000 0.000000 0.712571 -0.008158 -1.310730 -0.003995 -0.010985 0.018096 -86.199433 49.487517 89.646588 -0.052819 -0.000008 -0.000074 2.573041 -0.739910 -0.463023 -0.032489 0.000042 -0.000035 -4.590286 -0.705066 0.717109 0.087143 -0.045243 0.001548 -7.167150 -9.327208 -1.167547 -0.000000 -0.394432 -0.000001 4.067427 21.837153 -7.691683 0.000000 -0.466446 0.003058 5.320749 -13.418479 22.426836 0.000000 -0.079218 0.140851 0.000000 0.248287 -0.000000 -0.087143 -0.045243 0.001548 -11.552844 -13.079768 -2.648583 0.000000 -0.394432 -0.000001 7.830190 26.165370 -16.337592 -0.000000 -0.466446 0.003058 7.885310 -17.879393 24.729349 -0.000000 -0.079218 0.140851 -0.000000 0.248280 0.000002 
0.001622 1.034394 0.003365 0.018393 13.803175 13.068040 0.000000 0.059888 0.006665 -2.577418 6.682219 0.446987 -0.000000 0.125681 -0.015911 -2.446864 -0.277762 -0.760871 0.000000 0.122768 -0.001652 -0.000051 -12.397706 -0.000106 -0.000000 0.155865 0.008735 -0.293994 15.380015 0.362292 -0.000000 0.095969 -0.000410 1.162363 4.000013 5.295530 0.015267 0.059218 0.021494 -1.701130 3.586995 21.747935 -0.015267 0.059218 0.021494 1.701132 3.587004 -21.747925 0.025383 0.124268 0.007699 17.074039 -2.103907 13.036302 0.136062 -0.000000 -0.000000 -96.076801 17.835041 8.459225 0.225446 -0.000000 0.000000 -7.789287 2.987792 -21.825533 0.256325 0.000003 0.000015 -1.902619 38.222732 0.441277 0.074229 0.008101 0.022282 -0.012967 0.667615 1.112106 0.037712 -0.000000 -0.000001 -1.679195 1.282858 0.674522 0.023218 0.000022 0.000021 -0.334984 1.286454 -0.710999 0.069261 0.008101 -0.033073 0.000005 -0.000045 0.000002 0.035643 0.000000 -0.000000 0.000003 -0.000003 0.000001 0.020542 -0.000000 -0.000000 0.890204 -0.008563 -1.101172 0.075240 0.008101 0.002320 -0.000000 -0.000009 -0.000005 0.042007 -0.000000 -0.000000 0.000003 0.000039 -0.000013 0.025915 0.000000 0.000000 0.000003 0.000040 -0.000013 0.074383 0.008101 -0.015403 -0.000000 0.000010 0.000005 0.038967 0.000000 -0.000000 0.000003 -0.000002 -0.000000 0.022488 0.000000 -0.000000 -0.712572 -0.008157 1.310729 0.003995 -0.010985 0.018096 86.199480 49.487524 -89.646574 0.052819 -0.000008 -0.000074 -2.573036 -0.739913 0.463018 0.032489 0.000042 -0.000035 4.590284 -0.705069 -0.717109 -0.025383 0.124268 0.007699 10.779612 -2.077647 -13.009962 -0.136062 0.000000 -0.000000 62.586758 29.503125 9.031668 -0.225446 -0.000000 -0.000000 7.659964 16.050388 18.980010 -0.256325 0.000003 0.000015 0.273043 28.679814 6.653309 -0.074229 0.008101 0.022282 0.012969 0.667620 -1.112105 -0.037712 0.000000 -0.000001 1.679196 1.282862 -0.674522 -0.023218 0.000022 0.000021 0.334984 1.286454 0.710999 -0.069261 0.008101 -0.033073 -0.000004 -0.000045 -0.000000 -0.035643 0.000000 -0.000000 -0.000003 0.000001 -0.000001 -0.020542 -0.000000 0.000000 -0.890205 -0.008559 1.101171 -0.075240 0.008101 0.002320 0.000001 -0.000008 0.000006 -0.042007 -0.000000 0.000000 -0.000004 0.000040 0.000011 -0.025915 -0.000000 0.000000 -0.000002 0.000039 0.000012 -0.074383 0.008101 -0.015403 0.000001 0.000014 -0.000003 -0.038967 0.000000 0.000000 -0.000002 0.000001 0.000000 -0.022488 0.000000 0.000000 0.712572 -0.008158 -1.310729 -0.003995 -0.010985 0.018096 -86.199433 49.487521 89.646581 -0.052819 -0.000008 -0.000074 2.573046 -0.739910 -0.463021 -0.032489 0.000042 -0.000035 -4.590279 -0.705066 0.717110 0.087143 -0.045243 0.001548 -7.155693 -9.229303 -1.153534 0.000000 -0.394432 -0.000001 3.973666 21.827044 -7.483876 0.000000 -0.466446 0.003058 5.346326 -13.515872 22.376642 0.000000 -0.079218 0.140851 -0.000001 0.248283 -0.000001 -0.087143 -0.045243 0.001548 -11.637529 -12.953905 -2.643307 -0.000000 -0.394432 -0.000001 7.920646 26.140570 -16.534752 -0.000000 -0.466446 0.003058 8.084953 -18.113419 25.002075 -0.000000 -0.079218 0.140851 0.000000 0.248282 -0.000002 
0.002251 1.034522 0.003643 -0.087618 13.754528 13.295722 -0.000000 0.059888 0.006665 -2.409856 6.757919 0.370743 0.000000 0.125681 -0.015911 -2.291254 -0.206459 -0.721643 0.000000 0.122768 -0.001652 -0.000051 -12.397708 -0.000105 0.000000 0.155865 0.008735 -0.363051 15.330134 0.355540 0.000000 0.095969 -0.000410 1.179643 4.168878 5.391774 0.015267 0.059218 0.021494 -1.701132 3.586993 21.747930 -0.015267 0.059218 0.021494 1.701134 3.587006 -21.747922 0.025383 0.124268 0.007699 17.055648 -2.117365 12.986552 0.136062 -0.000000 -0.000000 -95.869170 17.105300 8.888532 0.225446 0.000000 0.000000 -7.758508 3.308198 -22.818945 0.256325 0.000003 0.000015 -2.558538 38.121024 1.206823 0.074229 0.008101 0.022282 -0.012968 0.667620 1.112106 0.037712 0.000000 -0.000001 -1.679195 1.282858 0.674523 0.023218 0.000022 0.000021 -0.334984 1.286458 -0.711000 0.069261 0.008101 -0.033073 0.000004 -0.000040 0.000001 0.035643 -0.000000 -0.000000 0.000003 0.000002 -0.000000 0.020542 0.000000 -0.000000 0.890203 -0.008559 -1.101172 0.075240 0.008101 0.002320 -0.000001 -0.000006 -0.000005 0.042007 0.000000 -0.000000 0.000003 0.000038 -0.000014 0.025915 -0.000000 -0.000000 0.000003 0.000038 -0.000014 0.074383 0.008101 -0.015403 -0.000002 0.000015 0.000005 0.038967 0.000000 -0.000000 0.000003 0.000001 -0.000001 0.022488 0.000000 0.000000 -0.712572 -0.008156 1.310729 0.003995 -0.010985 0.018096 86.199494 49.487521 -89.646574 0.052819 -0.000008 -0.000074 -2.573036 -0.739915 0.463018 0.032489 0.000042 -0.000035 4.590288 -0.705070 -0.717107 -0.025383 0.124268 0.007699 10.805702 -2.090299 -12.986727 -0.136062 0.000000 0.000000 62.415853 29.658389 9.211757 -0.225446 -0.000000 -0.000000 7.499620 15.793522 18.881933 -0.256325 0.000003 0.000015 0.305938 28.802433 6.599033 -0.074229 0.008101 0.022282 0.012969 0.667620 -1.112108 -0.037712 -0.000000 -0.000001 1.679195 1.282861 -0.674521 -0.023218 0.000022 0.000021 0.334984 1.286454 0.710999 -0.069261 0.008101 -0.033073 -0.000005 -0.000044 -0.000002 -0.035643 0.000000 0.000000 -0.000003 -0.000001 -0.000001 -0.020542 -0.000000 0.000000 -0.890204 -0.008562 1.101172 -0.075240 0.008101 0.002320 0.000000 -0.000008 0.000005 -0.042007 -0.000000 0.000000 -0.000003 0.000039 0.000012 -0.025915 0.000000 0.000000 -0.000003 0.000039 0.000013 -0.074383 0.008101 -0.015403 -0.000001 0.000014 -0.000005 -0.038967 -0.000000 0.000000 -0.000003 0.000000 -0.000000 -0.022488 -0.000000 -0.000000 0.712571 -0.008157 -1.310729 -0.003995 -0.010985 0.018096 -86.199439 49.487521 89.646588 -0.052819 -0.000008 -0.000074 2.573042 -0.739911 -0.463020 -0.032489 0.000042 -0.000035 -4.590280 -0.705066 0.717108 0.087143 -0.045243 0.001548 -7.097021 -9.128663 -1.131616 -0.000000 -0.394432 -0.000001 4.066175 21.808707 -7.670606 -0.000000 -0.466446 0.003058 5.361558 -13.584171 22.331676 0.000000 -0.079218 0.140851 -0.000000 0.248283 -0.000000 -0.087143 -0.045243 0.001548 -11.583839 -12.811134 -2.602323 -0.000000 -0.394432 -0.000001 8.033018 26.031676 -16.805744 -0.000000 -0.466446 0.003058 8.124023 -18.035012 25.204090 -0.000000 -0.079218 0.140851 -0.000001 0.248285 0.000000 
